<?xml version="1.0" encoding="UTF-8" standalone="no"?>
<!-- Created with Inkscape (http://www.inkscape.org/) -->

<svg
   xmlns:dc="http://purl.org/dc/elements/1.1/"
   xmlns:cc="http://creativecommons.org/ns#"
   xmlns:rdf="http://www.w3.org/1999/02/22-rdf-syntax-ns#"
   xmlns:svg="http://www.w3.org/2000/svg"
   xmlns="http://www.w3.org/2000/svg"
   xmlns:sodipodi="http://sodipodi.sourceforge.net/DTD/sodipodi-0.dtd"
   xmlns:inkscape="http://www.inkscape.org/namespaces/inkscape"
   width="86.213959mm"
   height="86.179512mm"
   viewBox="0 0 305.48254 305.36048"
   id="svg6070"
   version="1.1"
   inkscape:version="0.91 r13725"
   sodipodi:docname="road.svg"
   inkscape:export-filename="/home/geoffrey/Workspace/Thèmes&amp;chos/20150902_Presence-militaire-americaine-à-Okinawa/map_okinawa/img/pins/road.png"
   inkscape:export-xdpi="14.881844"
   inkscape:export-ydpi="14.881844">
  <defs
     id="defs6072" />
  <sodipodi:namedview
     id="base"
     pagecolor="#ffffff"
     bordercolor="#666666"
     borderopacity="1.0"
     inkscape:pageopacity="0.0"
     inkscape:pageshadow="2"
     inkscape:zoom="1.4142136"
     inkscape:cx="117.81559"
     inkscape:cy="196.15949"
     inkscape:document-units="px"
     inkscape:current-layer="layer1"
     showgrid="false"
     fit-margin-top="0"
     fit-margin-left="0"
     fit-margin-right="0"
     fit-margin-bottom="0"
     inkscape:window-width="1920"
     inkscape:window-height="1056"
     inkscape:window-x="0"
     inkscape:window-y="24"
     inkscape:window-maximized="1" />
  <metadata
     id="metadata6075">
    <rdf:RDF>
      <cc:Work
         rdf:about="">
        <dc:format>image/svg+xml</dc:format>
        <dc:type
           rdf:resource="http://purl.org/dc/dcmitype/StillImage" />
        <dc:title></dc:title>
      </cc:Work>
    </rdf:RDF>
  </metadata>
  <g
     inkscape:label="Layer 1"
     inkscape:groupmode="layer"
     id="layer1"
     transform="translate(-177.31915,-320.88633)">
    <path
       style="fill:#e3d818;fill-opacity:1;fill-rule:evenodd;stroke:#000000;stroke-width:11.85;stroke-linecap:butt;stroke-linejoin:miter;stroke-miterlimit:4;stroke-dasharray:none;stroke-opacity:1"
       d="m 183.24531,468.59909 c -0.0434,-2.8544 1.98197,-6.0011 3.97791,-7.9554 L 321.01607,329.64253 c 2.0382,-1.99567 5.25609,-2.86117 7.94291,-2.83005 2.6868,0.0312 5.98893,1.10927 7.91853,2.89147 l 136.76773,126.32 c 2.01039,1.85681 3.29205,4.99566 3.22821,7.79505 -0.0516,2.26562 -1.75795,5.48522 -3.26825,7.11508 L 339.0904,616.09831 c -1.90211,2.0527 -5.19492,4.13064 -7.93122,4.21771 -2.53047,0.0805 -5.85996,-1.76192 -7.6601,-3.61785 L 187.20877,476.18422 c -1.73969,-1.7936 -3.92474,-5.03458 -3.96346,-7.58513 z"
       id="path6089"
       inkscape:connector-curvature="0"
       sodipodi:nodetypes="ssszsssssssss" />
    <path
       style="fill:none;fill-rule:evenodd;stroke:#000000;stroke-width:2.0999999;stroke-linecap:round;stroke-linejoin:miter;stroke-miterlimit:4;stroke-dasharray:none;stroke-opacity:1"
       d="m 209.22785,461.42296 61.49303,-0.88388"
       id="path6631"
       inkscape:connector-curvature="0" />
    <path
       inkscape:connector-curvature="0"
       id="path6635"
       d="m 201.77797,475.06002 35.4816,-0.25253"
       style="fill:none;fill-rule:evenodd;stroke:#000000;stroke-width:2.0999999;stroke-linecap:round;stroke-linejoin:miter;stroke-miterlimit:4;stroke-dasharray:none;stroke-opacity:1"
       sodipodi:nodetypes="cc" />
    <path
       sodipodi:nodetypes="cc"
       style="fill:none;fill-rule:evenodd;stroke:#000000;stroke-width:2.0999999;stroke-linecap:round;stroke-linejoin:miter;stroke-miterlimit:4;stroke-dasharray:none;stroke-opacity:1"
       d="m 246.60349,474.42867 10.10152,-0.12626"
       id="path6637"
       inkscape:connector-curvature="0" />
    <path
       inkscape:connector-curvature="0"
       id="path6639"
       d="m 218.19295,492.86395 28.5368,-0.75761"
       style="fill:none;fill-rule:evenodd;stroke:#000000;stroke-width:2.0999999;stroke-linecap:round;stroke-linejoin:miter;stroke-miterlimit:4;stroke-dasharray:none;stroke-opacity:1"
       sodipodi:nodetypes="cc" />
    <path
       sodipodi:nodetypes="cc"
       style="fill:none;fill-rule:evenodd;stroke:#000000;stroke-width:2.0999999;stroke-linecap:round;stroke-linejoin:miter;stroke-miterlimit:4;stroke-dasharray:none;stroke-opacity:1"
       d="m 230.81986,502.08159 16.92005,-1.01015"
       id="path6641"
       inkscape:connector-curvature="0" />
    <g
       id="g6670">
      <path
         inkscape:connector-curvature="0"
         id="path6645"
         d="m 346.07143,409.77292 -0.17857,15.17857 22.94643,21.42857 0.44643,15.26786"
         style="fill:none;fill-rule:evenodd;stroke:#000000;stroke-width:5.5;stroke-linecap:round;stroke-linejoin:round;stroke-miterlimit:4;stroke-dasharray:none;stroke-opacity:1" />
      <ellipse
         ry="7.1428576"
         rx="6.7460313"
         cy="441.70471"
         cx="350.58987"
         id="path6647"
         style="opacity:1;fill:#000000;fill-opacity:1;stroke:none;stroke-width:4.5999999;stroke-linecap:round;stroke-miterlimit:4;stroke-dasharray:none;stroke-opacity:1" />
      <path
         sodipodi:nodetypes="cccccc"
         inkscape:connector-curvature="0"
         id="path6664"
         d="m 352.16443,431.11839 18.68783,-9.15451 6.40815,1.54679 2.57161,8.29071 -16.1771,9.67107 z"
         style="fill:#000000;fill-opacity:1;fill-rule:evenodd;stroke:none;stroke-width:1px;stroke-linecap:butt;stroke-linejoin:miter;stroke-opacity:1" />
      <path
         sodipodi:nodetypes="ccc"
         inkscape:connector-curvature="0"
         id="path6666"
         d="m 372.87256,424.5524 9.59645,-14.52095 16.03617,0.12627"
         style="fill:none;fill-rule:evenodd;stroke:#000000;stroke-width:6.30000019;stroke-linecap:round;stroke-linejoin:round;stroke-miterlimit:4;stroke-dasharray:none;stroke-opacity:1" />
      <path
         style="fill:none;fill-rule:evenodd;stroke:#000000;stroke-width:6.30000019;stroke-linecap:round;stroke-linejoin:round;stroke-miterlimit:4;stroke-dasharray:none;stroke-opacity:1"
         d="m 374.12256,428.74883 25.40002,-0.23524 -4.7674,14.3227"
         id="path6668"
         inkscape:connector-curvature="0"
         sodipodi:nodetypes="ccc" />
    </g>
    <g
       id="g6687">
      <circle
         r="9.6310835"
         cy="503.7908"
         cx="275.53571"
         id="path6677"
         style="opacity:1;fill:#000000;fill-opacity:1;stroke:#000000;stroke-width:4.10926247;stroke-linecap:round;stroke-linejoin:round;stroke-miterlimit:4;stroke-dasharray:none;stroke-opacity:1" />
      <circle
         style="opacity:1;fill:#000000;fill-opacity:1;stroke:#000000;stroke-width:4.10926247;stroke-linecap:round;stroke-linejoin:round;stroke-miterlimit:4;stroke-dasharray:none;stroke-opacity:1"
         id="circle6679"
         cx="380.35715"
         cy="502.0051"
         r="9.6310835" />
      <path
         sodipodi:nodetypes="cccccscssccssscssccsssssssccssssssc"
         inkscape:connector-curvature="0"
         id="path6681"
         d="m 259.73547,503.59683 -6.56599,-0.12627 -3.91434,-4.67195 0.33548,-6.10053 3.45259,0.0396 c 0,0 -1.73433,-7.00642 -0.63134,-9.97525 1.36551,-3.67544 23.23351,-23.73859 23.23351,-23.73859 0,0 6.35715,-1.52261 9.59645,-1.89403 9.99955,-1.14655 20.11347,-0.94043 30.1783,-1.01016 8.58774,-0.0595 25.75889,0.50508 25.75889,0.50508 l 26.26397,17.17259 c 0,0 11.65473,-0.0643 17.42513,0.63135 5.16303,0.62245 10.48034,1.15137 15.27856,3.15673 1.26018,0.52667 2.48007,1.27182 3.40926,2.27284 2.56435,2.76259 5.55584,9.84899 5.55584,9.84899 0,0 1.36392,3.13334 1.38896,4.79822 0.0229,1.52089 -0.47053,3.05186 -1.13642,4.41942 -0.99876,2.05116 -4.16688,5.42957 -4.16688,5.42957 l -8.08122,-0.50508 c 0,0 -1.11662,-3.72474 -1.76777,-5.55584 -0.50018,-1.40656 -0.74102,-2.97619 -1.64149,-4.16688 -2.01079,-2.65887 -4.91687,-4.68872 -7.95496,-6.06091 -1.36914,-0.61839 -3.98863,-0.77678 -5.49084,-0.7946 -2.43558,-0.0289 -3.82744,0.36722 -6.12591,1.17341 -1.90188,0.66708 -3.90502,1.45265 -5.3033,2.90418 -1.63237,1.69453 -2.54383,4.0418 -3.15673,6.31346 -0.69211,2.56526 -0.50507,7.95495 -0.50507,7.95495 l -73.23606,0.50507 c 0,0 -0.96005,-8.18111 -3.15673,-11.49048 -1.39234,-2.09761 -3.64845,-3.6175 -5.93465,-4.67196 -2.14374,-0.98875 -4.58409,-1.40671 -6.9448,-1.38896 -2.19587,0.0165 -4.43137,0.50089 -6.43972,1.38896 -1.98684,0.87856 -3.87652,2.14988 -5.3033,3.78808 -1.31065,1.50486 -1.97418,3.47671 -2.77792,5.3033 -0.64884,1.47456 -1.6415,4.54569 -1.6415,4.54569 z"
         style="fill:#000000;fill-opacity:1;fill-rule:evenodd;stroke:#000000;stroke-width:2.5;stroke-linecap:butt;stroke-linejoin:round;stroke-miterlimit:4;stroke-dasharray:none;stroke-opacity:1" />
      <path
         sodipodi:nodetypes="csssccssc"
         inkscape:connector-curvature="0"
         id="path6683"
         d="m 277.5837,477.23643 c -0.3367,-0.68852 -0.44145,-1.67811 -0.0311,-2.32119 2.63488,-4.12945 6.96627,-8.08934 10.06205,-10.67626 0.94808,-0.79224 2.45284,-1.32298 3.66399,-1.37278 l 21.43104,-0.52772 0.2315,16.92153 c 0,0 -29.75685,0.54238 -33.41186,0.22474 -0.74656,-0.0649 -1.60376,-1.54917 -1.94563,-2.24831 z"
         style="fill:#e3d818;fill-opacity:1;fill-rule:evenodd;stroke:none;stroke-width:1px;stroke-linecap:butt;stroke-linejoin:round;stroke-opacity:1" />
      <path
         style="fill:#e3d818;fill-opacity:1;fill-rule:evenodd;stroke:none;stroke-width:1px;stroke-linecap:butt;stroke-linejoin:round;stroke-opacity:1"
         d="m 357.85644,478.53604 c 2.22677,-0.54621 1.03149,-2.6086 0.56285,-3.23904 -3.0093,-4.0483 -8.36649,-7.76414 -13.08677,-10.79352 -2.33707,-1.49988 -3.95959,-1.83584 -6.09326,-2.17727 -1.55966,-0.24958 -17.12134,-0.30717 -17.12134,-0.30717 l 0.24286,17.27508 c 0,0 33.135,0.15269 35.49566,-0.75803 z"
         id="path6685"
         inkscape:connector-curvature="0"
         sodipodi:nodetypes="cssscccc" />
    </g>
  </g>
</svg>
